<svg class="icon icon-github" width="24" height="24" viewBox="0 0 32 32"><path d="M16 0.396c-8.837 0-16 7.163-16 16 0 7.075 4.584 13.066 10.944 15.183 0.8 0.147 1.091-0.347 1.091-0.771 0-0.38-0.014-1.387-0.022-2.722-4.451 0.967-5.39-2.146-5.39-2.146-0.728-1.847-1.779-2.34-1.779-2.34-1.453-0.993 0.11-0.973 0.11-0.973 1.604 0.113 2.448 1.648 2.448 1.648 1.427 2.444 3.747 1.738 4.658 1.329 0.144-1.034 0.558-1.738 1.015-2.137-3.554-0.405-7.29-1.777-7.29-7.908 0-1.746 0.623-3.173 1.646-4.292-0.165-0.404-0.713-2.036 0.157-4.244 0 0 1.342-0.43 4.4 1.64 1.274-0.354 2.641-0.531 4.003-0.538 1.362 0.007 2.729 0.184 4.003 0.538 3.057-2.071 4.4-1.64 4.4-1.64 0.87 2.208 0.323 3.84 0.158 4.244 1.024 1.119 1.646 2.546 1.646 4.292 0 6.145-3.742 7.497-7.306 7.895 0.574 0.494 1.086 1.47 1.086 2.962 0 2.14-0.02 3.865-0.02 4.388 0 0.428 0.287 0.923 1.1 0.765 6.353-2.122 10.944-8.108 10.944-15.181 0-8.837-7.163-16-16-16z"/></svg>